<svg width="20" height="20" viewBox="0 0 20 20" fill="none" xmlns="http://www.w3.org/2000/svg">
<g clip-path="url(#clip0_1_1535)">
<path d="M1.66699 10.1699C1.66699 8.26287 1.66699 7.30936 2.09966 6.51891C2.53233 5.72847 3.32278 5.23789 4.90369 4.25673L6.57035 3.22235C8.24148 2.1852 9.07705 1.66663 10.0003 1.66663C10.9236 1.66663 11.7592 2.1852 13.4303 3.22235L15.097 4.25673C16.6779 5.23789 17.4683 5.72847 17.901 6.51891C18.3337 7.30936 18.3337 8.26287 18.3337 10.1699V11.4374C18.3337 14.6882 18.3337 16.3135 17.3573 17.3234C16.381 18.3333 14.8097 18.3333 11.667 18.3333H8.33366C5.19096 18.3333 3.61961 18.3333 2.6433 17.3234C1.66699 16.3135 1.66699 14.6882 1.66699 11.4374V10.1699Z" stroke="white" stroke-width="1.5"/>
<path d="M10.0002 12.5L10.0002 15" stroke="white" stroke-width="1.5" stroke-linecap="round"/>
</g>
<defs>
<clipPath id="clip0_1_1535">
<rect width="20" height="20" fill="white" transform="translate(0.000244141)"/>
</clipPath>
</defs>
</svg>
